<?xml version="1.0" standalone="no"?>
<!DOCTYPE svg PUBLIC "-//W3C//DTD SVG 20010904//EN"
 "http://www.w3.org/TR/2001/REC-SVG-20010904/DTD/svg10.dtd">
<svg version="1.0" xmlns="http://www.w3.org/2000/svg"
 width="1024.000000pt" height="1024.000000pt" viewBox="0 0 1024.000000 1024.000000"
 preserveAspectRatio="xMidYMid meet">

<g transform="translate(0.000000,1024.000000) scale(0.100000,-0.100000)"
fill="#ff2b3a" stroke="none">
<path d="M5005 7636 c-68 -17 -117 -39 -167 -74 -72 -50 -2112 -2101 -2158
-2171 -47 -70 -72 -147 -77 -242 -7 -104 7 -167 54 -264 33 -66 100 -136 1091
-1128 582 -582 1077 -1071 1101 -1087 72 -49 147 -72 247 -77 112 -7 204 17
286 74 65 46 2166 2153 2195 2203 59 98 82 237 59 350 -36 169 32 94 -1120
1248 -572 574 -1069 1064 -1103 1088 -33 24 -87 54 -120 65 -73 26 -218 34
-288 15z m920 -1111 c22 -13 131 -115 242 -227 289 -292 292 -261 -46 -601
-217 -219 -240 -239 -277 -244 -27 -3 -51 0 -70 10 -16 9 -136 123 -266 254
l-238 239 0 44 c0 26 8 58 18 75 18 29 421 423 463 453 51 36 108 34 174 -3z
m-1482 4 c25 -13 1175 -1153 1194 -1184 7 -11 12 -40 13 -65 l0 -45 -238 -237
-237 -238 -51 0 c-38 0 -58 6 -85 25 -52 39 -1160 1136 -1181 1170 -22 37 -23
86 -3 130 16 31 408 418 449 442 27 15 110 17 139 2z m1455 -1421 c35 -12 522
-498 538 -535 18 -42 18 -107 0 -141 -8 -15 -113 -124 -233 -244 -319 -317
-285 -318 -627 21 -131 130 -251 254 -267 275 -24 32 -29 49 -29 95 l0 55 238
237 c270 271 278 275 380 237z m-1440 -7 c54 -28 479 -459 488 -494 15 -64 -9
-102 -179 -276 -345 -354 -349 -358 -393 -370 -23 -6 -48 -9 -55 -7 -8 2 -27
7 -43 11 -21 4 -96 72 -249 223 -120 119 -225 229 -233 244 -18 35 -18 102 1
142 18 38 488 509 530 530 41 21 88 20 133 -3z"/>
</g>
</svg>
