<?xml version="1.0" standalone="no"?>
<!DOCTYPE svg PUBLIC "-//W3C//DTD SVG 20010904//EN"
 "http://www.w3.org/TR/2001/REC-SVG-20010904/DTD/svg10.dtd">
<svg version="1.0" xmlns="http://www.w3.org/2000/svg"
 width="1024.000000pt" height="1024.000000pt" viewBox="0 0 1024.000000 1024.000000"
 preserveAspectRatio="xMidYMid meet">

<g transform="translate(0.000000,1024.000000) scale(0.100000,-0.100000)"
fill="#000000" stroke="none">
<path d="M6993 7082 c-100 -3 -103 -3 -103 -26 0 -22 5 -24 78 -29 99 -8 143
-22 193 -65 53 -45 81 -103 87 -178 6 -80 -12 -133 -82 -237 -89 -134 -230
-289 -502 -553 -141 -137 -366 -355 -498 -485 -133 -129 -254 -245 -270 -257
l-28 -22 30 -37 c94 -120 389 -495 467 -593 518 -650 1006 -1265 1039 -1307
l40 -51 120 -7 c67 -3 306 -5 531 -3 l410 3 0 25 c0 24 -4 25 -71 31 -180 16
-342 97 -498 248 -132 128 -1217 1441 -1539 1863 l-97 126 207 199 c407 390
474 453 588 557 298 272 659 526 923 648 116 54 176 74 266 89 71 12 76 14 76
38 l0 26 -633 0 c-347 0 -678 -1 -734 -3z"/>
<path d="M1680 7055 c0 -20 6 -25 38 -30 20 -4 74 -17 118 -31 102 -30 168
-77 292 -209 l92 -99 0 -1295 c0 -1297 -4 -1495 -36 -1631 -26 -112 -79 -205
-169 -296 -107 -109 -167 -139 -358 -179 -22 -4 -28 -11 -25 -28 l3 -22 693
-3 692 -2 0 24 c0 21 -6 26 -37 31 -73 12 -219 56 -281 85 -172 80 -297 239
-338 433 -48 226 -47 207 -51 1526 -4 1173 -3 1243 13 1230 44 -37 337 -381
700 -825 220 -269 533 -651 695 -849 162 -198 403 -493 534 -655 132 -162 319
-387 415 -500 96 -113 229 -272 295 -353 l119 -147 516 2 515 3 3 28 3 27 -75
0 c-192 0 -326 75 -399 224 -59 119 -57 63 -57 1633 0 1022 3 1457 11 1495 28
130 126 257 243 312 60 29 230 76 272 76 19 0 24 5 24 25 l0 25 -885 0 -885 0
0 -24 c0 -22 6 -26 48 -31 96 -13 219 -48 297 -84 130 -61 227 -165 278 -299
l22 -57 3 -1207 c1 -665 -1 -1208 -5 -1208 -9 1 -151 171 -793 950 -261 316
-546 663 -635 770 -88 107 -345 419 -569 693 l-408 497 -464 0 -464 0 0 -25z"/>
</g>
</svg>
